<?xml version="1.0" encoding="utf-8"?>
<!-- Generator: Adobe Illustrator 22.0.1, SVG Export Plug-In . SVG Version: 6.00 Build 0)  -->
<svg version="1.1" id="Layer_1" xmlns="http://www.w3.org/2000/svg" xmlns:xlink="http://www.w3.org/1999/xlink" x="0px" y="0px"
	 viewBox="0 0 58 58" style="enable-background:new 0 0 58 58;" xml:space="preserve">
<style type="text/css">
	.st0{opacity:0.7;fill:#0C0C0C;}
	.st1{fill:#E8E7E6;}
	.st2{fill:#F9F9F9;}
	.st3{fill:#FFFFFF;}
	.st4{fill:#666666;}
	.st5{fill:#999999;}
	.st6{fill:#E5BA03;}
	.st7{fill:none;stroke:#FFFFFF;stroke-width:2;stroke-miterlimit:10;}
	.st8{fill:#8C8C8C;}
	.st9{fill:#333333;}
	.st10{fill:#221E1A;}
	.st11{clip-path:url(#SVGID_10_);}
	.st12{clip-path:url(#SVGID_12_);}
	.st13{clip-path:url(#SVGID_14_);}
	.st14{opacity:0.7;fill:url(#SVGID_15_);}
	.st15{opacity:0.1;fill:url(#SVGID_16_);}
	.st16{opacity:0.7;fill:url(#SVGID_17_);}
	.st17{opacity:0.7;fill:url(#SVGID_18_);}
	.st18{opacity:0.3;fill:#FFFFFF;}
	.st19{fill:none;stroke:#DDDDDD;stroke-miterlimit:10;}
	.st20{clip-path:url(#SVGID_20_);}
	.st21{clip-path:url(#SVGID_22_);}
	.st22{clip-path:url(#SVGID_24_);}
	.st23{clip-path:url(#SVGID_26_);}
	.st24{opacity:0.7;fill:url(#SVGID_27_);}
	.st25{opacity:0.7;fill:url(#SVGID_28_);}
	.st26{fill:#BA9704;}
	.st27{fill:#D6AE03;}
	.st28{opacity:0.7;fill:url(#SVGID_29_);}
	.st29{opacity:0.7;fill:url(#SVGID_30_);}
	.st30{fill:#D1D1D1;}
	.st31{fill:#0C0C0C;}
	.st32{fill:#4293CB;}
	.st33{clip-path:url(#SVGID_32_);}
	.st34{fill:#69B741;}
	.st35{fill:none;stroke:#FFFFFF;stroke-miterlimit:10;}
	.st36{fill:#F2F2F2;}
	.st37{clip-path:url(#SVGID_44_);}
	.st38{fill:none;stroke:#0C0C0C;stroke-miterlimit:10;}
	.st39{opacity:0.5;}
	.st40{fill:#E9E9E9;}
	.st41{clip-path:url(#SVGID_46_);}
	.st42{clip-path:url(#SVGID_48_);}
	.st43{fill:none;stroke:#999999;stroke-miterlimit:10;}
	.st44{clip-path:url(#SVGID_50_);}
	.st45{clip-path:url(#SVGID_52_);}
	.st46{clip-path:url(#SVGID_54_);}
	.st47{fill:#606060;}
	.st48{clip-path:url(#SVGID_58_);}
	.st49{clip-path:url(#SVGID_60_);}
	.st50{opacity:0.7;fill:url(#SVGID_61_);}
	.st51{opacity:0.7;fill:url(#SVGID_62_);}
	.st52{clip-path:url(#SVGID_74_);}
	.st53{fill:url(#SVGID_75_);}
	.st54{clip-path:url(#SVGID_77_);}
	.st55{clip-path:url(#SVGID_79_);}
	.st56{clip-path:url(#SVGID_81_);}
	.st57{clip-path:url(#SVGID_83_);}
	.st58{clip-path:url(#SVGID_85_);}
	.st59{fill:url(#SVGID_86_);}
</style>
<g>
	<path class="st9" d="M56.5,31.6c-0.1,1.1-0.2,2.2-0.4,3.3c-1.4,8.3-5.6,14.8-12.5,19.6c-0.2,0.1-0.3,0.2-0.6,0.4c0.3,0,0.5,0,0.7,0
		c3.9,0,7.9,0,11.8,0c0.6,0,1,0.3,1,0.8c0,0.5-0.2,0.7-0.7,0.8c-0.2,0-0.4,0-0.5,0c-17.5,0-34.9,0-52.4,0c-0.9,0-1.2-0.2-1.2-0.8
		c0-0.6,0.4-0.8,1.2-0.8c1.4,0,2.9,0,4.3,0c0-0.1,0-0.1,0-0.1c-2.1-2-2.6-4.4-2.2-7.1C5.2,45.2,6,43,7.4,41c0.2-0.3,0.5-0.5,0.8-0.4
		c0.3,0.1,0.6,0.4,0.6,0.6C9,41.4,8.8,41.8,8.7,42c-1,1.5-1.7,3.1-2.1,4.9c-0.3,1.3-0.4,2.7-0.1,4c0.6,2.4,2.7,4,5.2,4
		c6.2,0,12.4,0,18.5,0c2.8,0,5.7,0,8.5,0c0.2,0,0.4,0,0.7,0c-0.2-1.2-0.3-2.4-0.6-3.5c-1.5-5.9-4.9-10.3-10.3-13.1
		c-0.4-0.2-0.5-0.1-0.8,0.1c-1.3,1.3-2.6,2.6-3.8,3.8c-0.1,0.1-0.2,0.2-0.3,0.3c2.3,3.3,1,6.7-1,8.3c-2.4,1.8-5.6,1.7-7.8-0.4
		c-2.1-2-2.4-5.3-0.7-7.7c1.5-2.1,4.9-3.5,8.2-1.4c1.3-1.3,2.7-2.7,4.1-4.1c-1-0.2-2-0.6-3-0.7c-2.8-0.5-5.6-0.6-8.4,0.5
		c-1.5,0.5-2.8,1.3-4,2.3c-0.3,0.2-0.6,0.4-1,0.2c-0.6-0.3-0.7-1-0.2-1.4c0.8-0.6,1.6-1.2,2.5-1.8c-0.6-1.5-1.1-3-1.7-4.5
		C9.3,28,7.8,24.1,6.3,20.2c-0.1-0.4-0.3-0.5-0.7-0.5c-0.5,0-1.1,0-1.6-0.1c-1.5-0.3-2.6-1.9-2.5-3.4c0.2-1.7,1.5-3,3.2-3
		c4.4,0,7.9,1.7,10.8,5.1c0.3,0.3,0.4,0.6,0.2,1c-0.2,0.4-0.5,0.5-0.9,0.5c-1.1,0-2.3,0-3.4,0c0.1,0.2,0.1,0.4,0.2,0.6
		c1.8,4.7,3.6,9.4,5.4,14.1c0.1,0.3,0.2,0.5,0.6,0.4c3.3-0.5,6.5,0,9.6,1.2c0.4,0.2,0.7,0.2,1.1-0.2c0.3-0.4,0.6-0.7,1-1
		c0,0,0-0.1,0.1-0.2c-0.6-0.4-1.2-0.7-1.7-1.1c-0.5-0.3-0.6-0.7-0.3-1.1c0.2-0.4,0.7-0.6,1.1-0.3c1.8,1.1,3.7,2.3,5.5,3.4
		c0.4,0.3,0.5,0.7,0.2,1.1c-0.3,0.4-0.7,0.5-1.1,0.2c-0.6-0.4-1.2-0.7-1.8-1.1c-0.3-0.2-0.5-0.2-0.7,0.1c-0.3,0.4-0.7,0.7-1.1,1.1
		c2.8,1.5,5.1,3.3,7.1,5.7c1.9,2.4,3.2,5,4,8.1c5.1-3.4,8.5-8,10.1-13.8c2.3-8,0.2-16.2-4.1-21.6c-1.3,1.2-2.5,2.4-3.8,3.7
		c-0.8,0.8-1.5,1.6-2.3,2.3c-1.7,1.6-3.7,2.4-6.1,2.5c-0.7,0-1.4,0-2.1,0c-0.7,0-1-0.3-1-0.8c0-0.5,0.3-0.8,1-0.8c1,0,2.1,0,3.1-0.1
		c2.1-0.3,3.6-1.5,4.9-2.9c0.1-0.1,0.1-0.3,0.1-0.4c-0.2-4.2,1.1-7.8,4.1-10.8c0.4-0.4,0.7-0.7,1.1-1.1c0.4-0.4,0.8-0.4,1.1,0
		c0.3,0.3,0.3,0.8,0,1.1c-0.6,0.7-1.3,1.3-1.9,2c-1.8,2.1-2.7,4.5-2.8,7.4c0.2-0.2,0.3-0.2,0.4-0.3c3.6-3.6,7.2-7.2,10.8-10.8
		c0.9-0.9,0.8-1.8,0-2.6c-0.7-0.6-1.5-0.6-2.1,0c-0.6,0.5-1.1,1.1-1.6,1.6c-0.4,0.4-0.9,0.4-1.2,0.1c-0.3-0.4-0.3-0.8,0.1-1.2
		c0.5-0.6,1-1.1,1.6-1.6c0.5-0.4,1.1-0.6,1.7-0.9c0.4,0,0.8,0,1.2,0c0.2,0.1,0.4,0.1,0.5,0.2c1.2,0.5,1.9,1.4,2.1,2.8
		c0.1,1.1-0.3,2-1,2.7c-1.5,1.5-3,2.9-4.4,4.4c0,0.1,0,0.1,0.1,0.1c0.1,0.1,0.2,0.2,0.3,0.3c3.1,4,5,8.4,5.8,13.3
		c0.2,1.1,0.3,2.2,0.4,3.3C56.5,29.6,56.5,30.6,56.5,31.6z M47.6,14c0.1,0.2,0.3,0.3,0.4,0.5c6.3,9.1,6.9,18.6,1.7,28.4
		c-2,3.8-4.9,6.7-8.5,9.1c-0.2,0.1-0.4,0.3-0.4,0.5c0,0.5,0.1,1,0.2,1.5c14.3-8,18.6-27.7,7.8-41.2C48.4,13.2,48.1,13.6,47.6,14z
		 M22.5,43.8c-0.1,0.1-0.3,0.2-0.4,0.4c-0.8,0.8-1.7,1.7-2.5,2.5c-0.4,0.4-0.9,0.5-1.2,0.1C18,46.5,18,46,18.4,45.5
		c0.2-0.2,0.3-0.3,0.5-0.5c0.8-0.8,1.6-1.6,2.3-2.3c-1.8-1.2-4.2-0.8-5.6,0.9c-1.4,1.7-1.2,4.3,0.4,5.8c1.6,1.5,4.2,1.6,5.8,0
		C23.5,48,23.7,45.5,22.5,43.8z M15.5,35.2c-0.1-0.2-0.2-0.4-0.2-0.6c-0.8-2-1.5-4-2.3-6c-1.1-2.8-2.1-5.6-3.2-8.4
		c-0.1-0.2-0.3-0.4-0.4-0.5c-0.5-0.1-0.9,0-1.5,0c2,5.4,4,10.7,6,16C14.5,35.6,15,35.4,15.5,35.2z M13,18.1c0-0.1,0-0.1,0-0.2
		c-2.4-2.1-5.1-3.2-8.3-3.1c-0.8,0-1.4,0.7-1.5,1.5C3,17.1,3.6,17.8,4.3,18c0.2,0.1,0.5,0.1,0.7,0.1c2.5,0,5,0,7.5,0
		C12.7,18.1,12.8,18.1,13,18.1z"/>
</g>
</svg>
