<?xml version="1.0" encoding="utf-8"?>
<!-- Generator: Adobe Illustrator 22.0.1, SVG Export Plug-In . SVG Version: 6.00 Build 0)  -->
<svg version="1.1" id="Layer_1" xmlns="http://www.w3.org/2000/svg" xmlns:xlink="http://www.w3.org/1999/xlink" x="0px" y="0px"
	 viewBox="0 0 58 58" style="enable-background:new 0 0 58 58;" xml:space="preserve">
<style type="text/css">
	.st0{opacity:0.7;fill:#0C0C0C;}
	.st1{fill:#E8E7E6;}
	.st2{fill:#F9F9F9;}
	.st3{fill:#FFFFFF;}
	.st4{fill:#666666;}
	.st5{fill:#999999;}
	.st6{fill:#E5BA03;}
	.st7{fill:none;stroke:#FFFFFF;stroke-width:2;stroke-miterlimit:10;}
	.st8{fill:#8C8C8C;}
	.st9{fill:#333333;}
	.st10{fill:#221E1A;}
	.st11{clip-path:url(#SVGID_10_);}
	.st12{clip-path:url(#SVGID_12_);}
	.st13{clip-path:url(#SVGID_14_);}
	.st14{opacity:0.7;fill:url(#SVGID_15_);}
	.st15{opacity:0.1;fill:url(#SVGID_16_);}
	.st16{opacity:0.7;fill:url(#SVGID_17_);}
	.st17{opacity:0.7;fill:url(#SVGID_18_);}
	.st18{opacity:0.3;fill:#FFFFFF;}
	.st19{fill:none;stroke:#DDDDDD;stroke-miterlimit:10;}
	.st20{clip-path:url(#SVGID_20_);}
	.st21{clip-path:url(#SVGID_22_);}
	.st22{clip-path:url(#SVGID_24_);}
	.st23{clip-path:url(#SVGID_26_);}
	.st24{opacity:0.7;fill:url(#SVGID_27_);}
	.st25{opacity:0.7;fill:url(#SVGID_28_);}
	.st26{fill:#BA9704;}
	.st27{fill:#D6AE03;}
	.st28{opacity:0.7;fill:url(#SVGID_29_);}
	.st29{opacity:0.7;fill:url(#SVGID_30_);}
	.st30{fill:#D1D1D1;}
	.st31{fill:#0C0C0C;}
	.st32{fill:#4293CB;}
	.st33{clip-path:url(#SVGID_32_);}
	.st34{fill:#69B741;}
	.st35{fill:none;stroke:#FFFFFF;stroke-miterlimit:10;}
	.st36{fill:#F2F2F2;}
	.st37{clip-path:url(#SVGID_44_);}
	.st38{fill:none;stroke:#0C0C0C;stroke-miterlimit:10;}
	.st39{opacity:0.5;}
	.st40{fill:#E9E9E9;}
	.st41{clip-path:url(#SVGID_46_);}
	.st42{clip-path:url(#SVGID_48_);}
	.st43{fill:none;stroke:#999999;stroke-miterlimit:10;}
	.st44{clip-path:url(#SVGID_50_);}
	.st45{clip-path:url(#SVGID_52_);}
	.st46{clip-path:url(#SVGID_54_);}
	.st47{fill:#606060;}
	.st48{clip-path:url(#SVGID_58_);}
	.st49{clip-path:url(#SVGID_60_);}
	.st50{opacity:0.7;fill:url(#SVGID_61_);}
	.st51{opacity:0.7;fill:url(#SVGID_62_);}
	.st52{clip-path:url(#SVGID_74_);}
	.st53{fill:url(#SVGID_75_);}
	.st54{clip-path:url(#SVGID_77_);}
	.st55{clip-path:url(#SVGID_79_);}
	.st56{clip-path:url(#SVGID_81_);}
	.st57{clip-path:url(#SVGID_83_);}
	.st58{clip-path:url(#SVGID_85_);}
	.st59{fill:url(#SVGID_86_);}
</style>
<g>
	<path class="st9" d="M27.9,1.5c0.5,0.2,0.8,0.7,0.9,1.2c0.1,0.9,0.3,1.7,0.4,2.5c0.3,1.4,0,1.7-1.3,2c-0.1,0-0.3,0.1-0.5,0.1
		c1.1,6.3,2.2,12.5,3.3,18.8c0.8-0.1,1.6-0.3,2.4-0.4c0.5-0.1,0.9-0.1,1.2,0.3c0.3,0.4,0.3,0.8,0,1.3c-0.1,0.3-0.4,0.6-0.3,0.8
		c0.2,0.4,0.5,0.8,0.8,1.1c0.1,0.1,0.3,0.1,0.5,0c0.9-0.1,1.3,0.1,1.4,1c0.2,1.1,0.4,2.2,0.6,3.4c0,0.4-0.1,0.8-0.3,1.1
		c-1.3,1.6-2.6,3.2-3.9,4.7c-0.1,0.1-0.2,0.2-0.3,0.4c2,2,4.1,3.9,6.2,6C39,45,39,44.2,38.9,43.5c-0.1-0.7-0.1-1.5-0.2-2.2
		c-0.1-0.6,0.1-1,0.5-1.5c1.1-1.3,2.1-2.5,3.1-3.8c0.1-0.2,0.2-0.5,0.1-0.7c-0.4-1.6-0.9-3.3-1.3-4.9c-0.1-0.3-0.2-0.5-0.5-0.5
		c-0.8,0-1.3-0.4-1.7-1.1c-0.2-0.4-0.5-0.8-0.8-1.2c-0.4-0.6-0.3-1.1,0.2-1.5c0.6-0.5,1.1-1,1.8-1.4c0.3-0.2,0.8-0.2,1.2-0.2
		c1.3,0.2,2.6,0.4,3.9,0.7c0.1,0,0.3,0,0.5,0.1c0.1-0.8,0.3-1.5,0.4-2.3c-0.5-0.2-1-0.4-1.4-0.6c-1.4-0.7-1.9-2-1.5-3.5
		c0.2-0.8,0.7-1.5,1.4-2c0.2-0.2,0.2-0.3,0.2-0.6c-0.1-0.6-0.2-1.2,0-1.8c0.3-1.4,1.1-2.6,2.3-3.4c1.3-0.8,2.8-0.6,3.7,0.6
		c1,1.4,1.3,2.9,1,4.6c-0.1,0.5-0.4,0.9-0.7,1.4c0.8,1.2,1.1,2.5,0.4,4c-0.8,1.5-2.2,1.5-3.7,1.5c-0.1,0.8-0.3,1.5-0.4,2.3
		c1.5,0.3,2.9,0.5,4.3,0.8c0.5,0.1,1.1,0.2,1.6,0.3c0.6,0.1,0.9,0.5,0.9,1.1c0,3.7,0,7.3,0,11c0,0.5-0.3,0.9-0.8,0.9
		c-0.5,0-0.8-0.4-0.8-0.9c0-2,0-4,0-6c0-0.2,0-0.4,0-0.7c-3.2-0.6-6.4-1.1-9.7-1.7c0.4,1.6,0.8,3.1,1.2,4.6c0.3,0.8,0.1,1.5-0.4,2.1
		c-1,1.1-1.9,2.4-2.9,3.5c-0.3,0.3-0.4,0.7-0.3,1.1c0.1,1.7,0.3,3.4,0.4,5.1c0,0.2,0,0.3,0,0.5c0,0.5-0.1,0.9-0.6,1.1
		c-0.5,0.2-0.9,0-1.2-0.3c-0.8-0.7-1.5-1.5-2.3-2.2c-1.6-1.5-3.2-3.1-4.8-4.6c-0.4,0.5-0.8,1-1.2,1.5c-0.1,0.1-0.1,0.4,0,0.6
		c0.4,0.9,0.9,1.8,1.3,2.7c0.4,0.9,0.3,1.5-0.4,2.2c-1.1,1.1-2.1,2.1-3.2,3.2c-0.5,0.5-1,0.5-1.3,0.1c-0.3-0.4-0.3-0.8,0.1-1.2
		c1-1,2-2,3-3c0.3-0.3,0.4-0.5,0.2-0.9c-0.4-0.8-0.8-1.7-1.3-2.5c-0.4-0.8-0.3-1.5,0.3-2.1c2.1-2.5,4.1-4.9,6.2-7.4
		c0.2-0.2,0.3-0.5,0.2-0.8c-0.1-0.8-0.3-1.6-0.4-2.4c-9.6,1.7-19.2,3.4-28.7,5.1c0,6.3,0,12.6,0,18.9c15.3,0,30.6,0,45.9,0
		c0-0.2,0-0.4,0-0.6c0-3.8,0-7.6,0-11.4c0-0.2,0-0.4,0-0.5c0.1-0.4,0.3-0.7,0.8-0.7c0.4,0,0.7,0.2,0.8,0.7c0,0.2,0,0.3,0,0.5
		c0,4,0,8,0,12c0,1.2-0.5,1.7-1.7,1.7c-15.3,0-30.5,0-45.8,0c-1.2,0-1.7-0.5-1.7-1.7c0-7.6,0-15.2,0-22.8c0-1.1,0.3-1.4,1.3-1.5
		c1.4-0.2,2.7-0.5,4.1-0.7C9.3,23.5,8.2,17.2,7,10.9c-0.4,0.1-0.7,0.1-1,0.1c-0.7,0.1-1.2-0.3-1.3-0.9C4.5,9.1,4.3,7.9,4.2,6.8
		C4.1,6.1,4.4,5.6,5.1,5.5c1.6-0.3,3.2-0.6,4.9-0.9c0.6-0.1,1,0.2,1.1,0.7c0.1,0.5-0.3,0.8-0.9,0.9C8.9,6.4,7.6,6.7,6.3,6.9
		C6.2,6.9,6,6.9,5.8,7C6,7.8,6.1,8.6,6.3,9.4c7.2-1.3,14.3-2.5,21.4-3.8c-0.1-0.8-0.3-1.6-0.4-2.5c-1,0.2-1.9,0.3-2.9,0.5
		c-3.3,0.6-6.7,1.2-10,1.8c-0.5,0.1-0.9,0.1-1.1-0.5C13,4.5,13.4,4,14,3.9c1.5-0.3,3-0.5,4.4-0.8c2.9-0.5,5.8-1,8.7-1.5
		c0.1,0,0.1-0.1,0.2-0.1C27.5,1.5,27.7,1.5,27.9,1.5z M23.9,27.4c1.8-0.3,3.5-0.6,5.3-0.9c-1.1-6.3-2.2-12.6-3.3-18.8
		c-5.8,1-11.5,2-17.2,3C9.7,17,10.8,23.2,12,29.5c1.9-0.3,3.8-0.7,5.7-1c-0.3-1.5-0.5-2.8-0.7-4.2c-0.1-0.8,0.2-1.3,0.9-1.4
		c1.3-0.2,2.6-0.5,3.9-0.7c0.8-0.1,1.3,0.1,1.4,1C23.4,24.5,23.6,25.9,23.9,27.4z M6.6,34.4c8.9-1.6,17.7-3.1,26.6-4.7
		c-0.4-0.7-1.2-1.2-0.6-2.2c-8.7,1.5-17.4,3.1-26,4.6C6.6,32.8,6.6,33.6,6.6,34.4z M50.5,15.2c-0.2-0.9-0.3-1.7-0.8-2.3
		c-0.5-0.7-1.1-0.8-1.8-0.3C47,13.1,46.5,14,46.3,15c-0.1,0.3,0,0.6,0.1,0.8c0.4,1,0.2,1.5-0.6,2.1c-0.5,0.4-0.9,0.8-1,1.5
		c-0.1,0.7,0,1.1,0.6,1.4c1.2,0.6,2.5,0.9,3.9,0.7c0.5-0.1,0.9-0.4,1-0.9c0.1-0.7-0.1-1.3-0.5-1.9c-0.5-0.8-0.4-1.4,0.1-2.1
		C50.2,16.1,50.3,15.6,50.5,15.2z M52.5,28c-0.1,0-0.1-0.1-0.2-0.1c-3.7-0.7-7.4-1.3-11-1.9c-0.2,0-0.4,0-0.5,0.1
		c-0.4,0.3-0.7,0.6-1,0.8c0.1,0.2,0.3,0.4,0.4,0.6c0.2,0.5,0.6,0.7,1.2,0.8c2.1,0.3,4.3,0.7,6.4,1.1c1.6,0.3,3.2,0.6,4.8,0.9
		C52.5,29.5,52.5,28.8,52.5,28z M18.6,24.4c0.2,1.3,0.4,2.5,0.7,3.8c1-0.2,2-0.4,3-0.5c-0.2-1.3-0.5-2.6-0.7-3.8
		C20.6,24,19.6,24.2,18.6,24.4z"/>
	<path class="st9" d="M7.2,26.2c-0.4,0.8-0.7,1.6-1.2,2.4c-0.2,0.3-0.6,0.3-1,0.1c-0.3-0.2-0.5-0.5-0.3-0.9c0.2-0.4,0.4-0.9,0.6-1.3
		c0.1-0.2,0-0.4-0.1-0.6c-0.1-0.2-0.3-0.3-0.4-0.4c-0.6-0.7-0.7-1.3-0.4-2.2c0.4-0.9,0.4-0.9-0.2-1.5C4.1,21.7,4,21.6,4,21.4
		c-0.2-0.3-0.1-0.7,0.2-0.9c0.2-0.1,0.7-0.3,0.9-0.1c0.5,0.4,0.9,0.8,1.2,1.4c0.4,0.6,0.2,1.2-0.2,1.8c-0.3,0.5-0.2,0.8,0.2,1.1
		c0.5,0.4,0.8,0.9,0.8,1.5C7.1,26.2,7.2,26.2,7.2,26.2z"/>
	<path class="st9" d="M30.9,13.9c0-0.1,0-0.3,0.1-0.5c0.5-0.8,0.4-1.4-0.3-2c-0.3-0.2-0.3-0.7-0.4-1.1c0-0.2,0-0.4,0.1-0.6
		c0.2-0.6,0.5-1.1,0.7-1.7c0.2-0.4,0.7-0.6,1-0.4c0.4,0.2,0.6,0.6,0.4,1c-0.1,0.4-0.3,0.7-0.5,1c-0.2,0.4-0.2,0.7,0.2,1
		c0.1,0.1,0.2,0.2,0.3,0.3c0.6,0.6,0.7,1.3,0.3,2c-0.4,0.7-0.4,1.2,0.3,1.7c0.1,0.1,0.2,0.2,0.2,0.2c0,0.3,0,0.7-0.1,0.9
		c-0.2,0.2-0.6,0.3-0.8,0.2C31.8,15.9,30.9,14.7,30.9,13.9z"/>
	<path class="st9" d="M12,15.1c0-0.8,0.3-1.1,0.9-1.2c2.4-0.4,4.8-0.9,7.2-1.3c0.9-0.2,1.9-0.3,2.8-0.5c0.6-0.1,1.1,0.2,1.2,0.8
		c0.3,1.3,0.5,2.6,0.7,3.9c0.1,0.6-0.3,1-0.9,1.2c-2.6,0.5-5.2,0.9-7.9,1.4c-0.7,0.1-1.4,0.3-2.2,0.4c-0.6,0.1-1.1-0.2-1.2-0.7
		C12.4,17.7,12.2,16.3,12,15.1z M19,14.4c0.2,0.9,0.3,1.8,0.5,2.7c1.3-0.2,2.5-0.4,3.7-0.7c-0.2-0.9-0.3-1.8-0.5-2.7
		C21.4,14,20.2,14.2,19,14.4z M17.9,17.4c-0.2-0.9-0.3-1.8-0.5-2.7c-1.3,0.2-2.5,0.4-3.7,0.7c0.2,0.9,0.3,1.8,0.5,2.7
		C15.4,17.8,16.6,17.6,17.9,17.4z"/>
</g>
</svg>
