<?xml version="1.0" encoding="utf-8"?>
<!-- Generator: Adobe Illustrator 22.0.1, SVG Export Plug-In . SVG Version: 6.00 Build 0)  -->
<svg version="1.1" id="Layer_1" xmlns="http://www.w3.org/2000/svg" xmlns:xlink="http://www.w3.org/1999/xlink" x="0px" y="0px"
	 viewBox="0 0 58 58" style="enable-background:new 0 0 58 58;" xml:space="preserve">
<style type="text/css">
	.st0{opacity:0.7;fill:#0C0C0C;}
	.st1{fill:#E8E7E6;}
	.st2{fill:#F9F9F9;}
	.st3{fill:#FFFFFF;}
	.st4{fill:#666666;}
	.st5{fill:#999999;}
	.st6{fill:#E5BA03;}
	.st7{fill:none;stroke:#FFFFFF;stroke-width:2;stroke-miterlimit:10;}
	.st8{fill:#8C8C8C;}
	.st9{fill:#333333;}
	.st10{fill:#221E1A;}
	.st11{clip-path:url(#SVGID_10_);}
	.st12{clip-path:url(#SVGID_12_);}
	.st13{clip-path:url(#SVGID_14_);}
	.st14{opacity:0.7;fill:url(#SVGID_15_);}
	.st15{opacity:0.1;fill:url(#SVGID_16_);}
	.st16{opacity:0.7;fill:url(#SVGID_17_);}
	.st17{opacity:0.7;fill:url(#SVGID_18_);}
	.st18{opacity:0.3;fill:#FFFFFF;}
	.st19{fill:none;stroke:#DDDDDD;stroke-miterlimit:10;}
	.st20{clip-path:url(#SVGID_20_);}
	.st21{clip-path:url(#SVGID_22_);}
	.st22{clip-path:url(#SVGID_24_);}
	.st23{clip-path:url(#SVGID_26_);}
	.st24{opacity:0.7;fill:url(#SVGID_27_);}
	.st25{opacity:0.7;fill:url(#SVGID_28_);}
	.st26{fill:#BA9704;}
	.st27{fill:#D6AE03;}
	.st28{opacity:0.7;fill:url(#SVGID_29_);}
	.st29{opacity:0.7;fill:url(#SVGID_30_);}
	.st30{fill:#D1D1D1;}
	.st31{fill:#0C0C0C;}
	.st32{fill:#4293CB;}
	.st33{clip-path:url(#SVGID_32_);}
	.st34{fill:#69B741;}
	.st35{fill:none;stroke:#FFFFFF;stroke-miterlimit:10;}
	.st36{fill:#F2F2F2;}
	.st37{clip-path:url(#SVGID_44_);}
	.st38{fill:none;stroke:#0C0C0C;stroke-miterlimit:10;}
	.st39{opacity:0.5;}
	.st40{fill:#E9E9E9;}
	.st41{clip-path:url(#SVGID_46_);}
	.st42{clip-path:url(#SVGID_48_);}
	.st43{fill:none;stroke:#999999;stroke-miterlimit:10;}
	.st44{clip-path:url(#SVGID_50_);}
	.st45{clip-path:url(#SVGID_52_);}
	.st46{clip-path:url(#SVGID_54_);}
	.st47{fill:#606060;}
	.st48{clip-path:url(#SVGID_58_);}
	.st49{clip-path:url(#SVGID_60_);}
	.st50{opacity:0.7;fill:url(#SVGID_61_);}
	.st51{opacity:0.7;fill:url(#SVGID_62_);}
	.st52{clip-path:url(#SVGID_74_);}
	.st53{fill:url(#SVGID_75_);}
	.st54{clip-path:url(#SVGID_77_);}
	.st55{clip-path:url(#SVGID_79_);}
	.st56{clip-path:url(#SVGID_81_);}
	.st57{clip-path:url(#SVGID_83_);}
	.st58{clip-path:url(#SVGID_85_);}
	.st59{fill:url(#SVGID_86_);}
</style>
<g>
	<path class="st9" d="M1.5,50.6c0.3-0.4,0.5-0.8,0.9-1.2c-0.4-0.9-0.6-1.9-0.3-3c0.4-1.8,1.6-2.9,3.3-3.3c0.4-0.1,0.5-0.3,0.5-0.6
		c0.4-1.3,0.7-2.6,1.1-3.8c0.2-0.5,0.5-1,0.8-1.4c0.9-1.1,1.7-1.3,3-0.7c0-0.2,0-0.3,0-0.5c0-2.9,0-5.8-0.1-8.6c0-0.7,0.3-1,0.8-1
		c0.5,0,0.8,0.4,0.8,1.1c0,0.7,0,1.4,0,2c4.2,0,8.3,0,12.4,0c0-3.2,0-6.4,0-9.5c-4.2,0-8.3,0-12.4,0c0,0.6,0,1.2,0,1.8
		c0,0.7,0,1.4,0,2.1c0,0.5-0.3,0.9-0.8,0.9c-0.5,0-0.8-0.3-0.8-0.9c0-0.6,0-1.1,0-1.7c-0.6,0-1.1,0-1.6,0c-1.3,0-2.5,0.1-3.8,0
		c-1.9-0.2-3.1-1.3-3.7-3.1c-0.5-1.8,0.2-3.7,1.6-4.9c1.7-1.3,4.1-1.4,5.8,0c0.3,0.2,0.5,0.3,0.9,0.2c1.3-0.3,2.4,0.1,3.5,0.9
		c0.8-1,1.6-2,2.4-3c0.3-0.4,0.5-0.7,0.8-1.1c0.9-1.1,2.5-1.2,3.4,0c2,2.4,4,4.9,5.9,7.4c0.2,0.2,0.2,0.5,0.2,0.7c0,1.3,0,2.6,0,3.9
		c0,0.2,0,0.4,0,0.6c1.9,0,3.8,0,5.7,0c0.4,0,0.9,0,1.3,0c0.5,0,0.7,0.3,0.8,0.7c0.1,0.4-0.2,0.8-0.7,0.9c-0.4,0-0.9,0-1.4,0
		c0,1.2,0,2.4,0,3.6c0.4,0.1,0.8,0.1,1.2,0.2c1.4,0.3,2.6,1,3.3,2.3c0.4,0.7,0.8,1.3,1.2,2c1.1-5.3,5.9-7.8,10.2-6.9
		c3.7,0.8,7.3,4.4,6.5,9.8c0.4,0.1,0.8,0.3,1.1,0.4c0.5,0.1,0.7,0.4,0.7,0.9c0,4.9,0.1,9.7,0.1,14.6c0,1-0.7,1.6-1.8,1.6
		c-6,0-12,0.1-17.9,0.1C25.7,53.9,14.5,53.9,3.4,54c-0.9,0-1.6-0.4-1.9-1.3C1.5,52,1.5,51.3,1.5,50.6z M47,41.4
		c0.3,0,0.5-0.1,0.7-0.1c3.3-0.7,5.5-3.7,5.3-7c-0.2-3.5-2.8-6.1-6.3-6.4c-3.2-0.3-6.3,1.9-7.1,5.1c-0.4,1.5-0.4,3,0.6,4.4
		c0.3,0.5,0.6,1,0.9,1.5c0.9,1.7,2.5,2.2,4.2,2.6c0-0.7,0-1.4,0-2.1c0-0.2-0.1-0.5-0.3-0.6c-0.5-0.5-1-1-1.5-1.5
		c-0.5-0.5-0.6-1-0.2-1.3c0.4-0.4,0.8-0.3,1.4,0.2c0.2,0.2,0.4,0.4,0.7,0.6c0-0.6,0-1.1,0-1.6c0-0.5,0-1,0-1.5
		c0-0.6,0.3-0.9,0.8-0.9c0.5,0,0.8,0.3,0.8,0.9c0,0.3,0,0.6,0,0.9c0.1,0,0.1,0,0.2,0.1c0.2-0.2,0.4-0.5,0.6-0.7
		c0.4-0.4,0.9-0.5,1.3-0.1c0.4,0.4,0.3,0.8-0.1,1.3c-0.5,0.6-1.1,1.1-1.7,1.7c-0.1,0.1-0.3,0.3-0.3,0.5C47,38.5,47,39.9,47,41.4z
		 M26.6,34.5c0,4.9,0,9.8,0,14.7c0.3,0,0.4,0,0.6,0c0.9-4,4.7-7.1,9.6-6.2c0-0.1,0-0.1-0.1-0.2c-1.4-2.4-2.8-4.7-4.2-7.1
		c-0.4-0.7-1-1.1-1.8-1.2C29.3,34.4,28,34.5,26.6,34.5z M3.1,52.4c17.3-0.1,34.5-0.2,51.7-0.3c0-0.5,0-0.9,0-1.4
		C37.6,50.8,20.4,50.9,3.1,51C3.1,51.5,3.1,51.9,3.1,52.4z M45.5,49c0-0.7,0-1.4,0-2.2c0-0.1-0.2-0.2-0.4-0.3
		c-0.6-0.4-1.2-0.7-1.7-1.1c-0.3-0.3-0.5-0.7-0.8-1c-2.4-4-4.8-8.1-7.2-12.1c-0.6-1-1.5-1.7-2.7-1.7c-2-0.1-4.1,0-6.1,0
		c0,0-0.1,0-0.1,0.1c0,0.7,0,1.5,0,2.2c1.2,0,2.3,0,3.5,0c1.8,0,3.1,0.7,4.1,2.3c2.4,4,4.8,8.1,7.2,12.1
		C42.2,48.7,43.6,49.4,45.5,49z M40.6,49.2c-0.7-1.2-1.4-2.3-2-3.4c-0.3-0.5-0.6-0.8-1.2-1c-2.4-0.8-4.6-0.4-6.6,1.3
		c-0.9,0.8-1.6,1.9-1.9,3.1C32.8,49.2,36.7,49.2,40.6,49.2z M22.4,34.1c0,5.1,0,10.1,0,15.1c0.9,0,1.7,0,2.6,0c0-5.1,0-10.1,0-15.1
		C24,34.1,23.2,34.1,22.4,34.1z M12.6,16.5c-0.8-0.6-1.6-0.8-2.5-0.5c-0.6,0.2-1,0.1-1.5-0.4c-1.1-1.2-2.9-1.2-4.1-0.3
		c-1,0.8-1.4,2.1-1.1,3.2c0.3,1.1,1.2,1.9,2.4,2c1.6,0.1,3.3,0,4.9,0c0,0,0.1,0,0.1-0.1c0-0.2,0-0.5,0-0.8c0-0.6,0.1-1,0.5-1.5
		C11.8,17.6,12.2,17,12.6,16.5z M9.6,49.3C9.6,49.3,9.6,49.3,9.6,49.3c1.6,0,3.2-0.1,4.8,0c0.5,0,0.6-0.2,0.7-0.6
		c0.1-1.1-0.9-1.9-2-1.6c-0.5,0.1-0.9,0-1.3-0.3c-0.5-0.5-1.1-0.7-1.8-0.5c-1,0.3-1,0.3-1.5-0.6C7.7,44.5,6,44.2,4.8,45
		c-1.2,0.8-1.6,2.5-0.8,3.8c0.2,0.4,0.5,0.5,0.9,0.5C6.5,49.3,8.1,49.3,9.6,49.3z M13.3,18.2c3.6,0,7.1,0,10.7,0
		C22.3,16.1,20.7,14,19,12c-0.3-0.3-0.6-0.3-0.9,0c-0.3,0.4-0.6,0.8-1,1.2C15.9,14.9,14.6,16.5,13.3,18.2z M54.1,37.8
		c-1.4,3-3.7,4.8-7,5.3c0,0.7,0,1.4,0,2c1.9,0,3.8,0,5.7,0c0.9,0,1.2,0.2,1.2,1.2c0,0.9,0,1.8,0,2.8c0.3,0,0.6,0,0.9,0
		c0-0.2,0-0.4,0-0.6c0-3.3-0.1-6.7-0.1-10C54.8,38,54.6,37.8,54.1,37.8z M12.3,44.8c-0.1-0.7-0.2-1.5-0.4-2.3
		c-0.3-1.5-0.7-3-1.6-4.3c-0.4-0.6-0.7-0.6-1.2,0c-1,1.5-1.4,3.1-1.7,4.9c0.9,0.3,1.7,0.7,2.3,1.4c0.1,0.1,0.2,0.1,0.3,0.1
		C10.7,44.7,11.5,44.7,12.3,44.8z M20.7,44.4c-1.5,0-2.9,0-4.4,0c0.1,1.7,0.3,3.3,0.4,4.9c1.3,0,2.6,0,4,0
		C20.7,47.6,20.7,46,20.7,44.4z M12.5,34.2c0,0.7,0,1.3,0,1.9c0,1.7,0.1,3.5,0.7,5.1c0,0.1,0.1,0.2,0.1,0.3c0.2,1.3,0.5,2.6,0.7,4
		c0.2,0,0.5,0.1,0.7,0.2c0-3.8,0-7.6,0-11.4C14,34.2,13.2,34.2,12.5,34.2z M12.5,32.5c4.2,0,8.3,0,12.4,0c0-0.5,0-1,0-1.4
		c-4.1,0-8.3,0-12.4,0C12.5,31.6,12.5,32,12.5,32.5z M47.1,46.7c0,0.3,0,0.5,0,0.7c0,0.5-0.1,1.2,0.2,1.5c0.2,0.3,0.9,0.1,1.4,0.1
		c1.2,0,2.5,0,3.7,0c0-0.8,0-1.6,0-2.3C50.6,46.7,48.9,46.7,47.1,46.7z M16.5,41c0,0.6,0,1.2,0,1.7c1.4,0,2.8,0,4.2,0
		c0-0.6,0-1.2,0-1.7C19.2,41,17.9,41,16.5,41z M20.7,37.6c-1.5,0-2.9,0-4.3,0c0,0.6,0,1.2,0,1.7c1.4,0,2.8,0,4.3,0
		C20.7,38.7,20.7,38.1,20.7,37.6z M20.7,34.2c-1.4,0-2.8,0-4.3,0c0,0.6,0,1.2,0,1.7c1.4,0,2.8,0,4.3,0
		C20.7,35.3,20.7,34.7,20.7,34.2z M30.5,25.3c-0.4,0-0.8,0-1.1,0c0,1.2,0,2.4,0,3.6c0.4,0,0.8,0,1.1,0
		C30.5,27.7,30.5,26.5,30.5,25.3z M27.7,28.9c0-1.2,0-2.4,0-3.6c-0.4,0-0.8,0-1.1,0c0,1.2,0,2.4,0,3.6
		C26.9,28.9,27.3,28.9,27.7,28.9z M43.5,42.7c0.6,1.2,1.1,2.1,1.9,2.2c0-0.6,0-1.2,0-1.8C44.8,42.9,44.2,42.8,43.5,42.7z"/>
	<path class="st9" d="M45.3,14.3c-1.3,0-2.7,0-4,0c-0.2,0-0.4,0-0.5,0c-0.4-0.1-0.7-0.4-0.7-0.8c0-0.4,0.2-0.7,0.7-0.8
		c0.5,0,1,0,1.5,0c2.3,0,4.6,0,6.9,0c0.6,0,0.9-0.2,1-0.7c0.1-0.5-0.3-0.9-0.9-0.9c-0.6,0-1.3,0-1.9,0c-0.4,0-0.8-0.1-1-0.5
		c-0.4-0.6-1-0.9-1.8-0.9c-0.8,0-0.9-0.1-1.1-0.9c-0.7-2.9-4-4.1-6.4-2.4c-0.8,0.6-1.4,1.4-1.6,2.4c-0.2,0.8-0.3,0.8-1.1,1
		c-0.9,0.1-1.7,0.9-1.8,1.9c0,0.7,0.4,1.1,1.1,1.1c1.4,0,2.7,0,4.1,0c0.3,0,0.7,0.1,0.9,0.3c0.4,0.4,0.1,1.2-0.5,1.3
		c-1.6,0-3.3,0.1-4.9,0c-1.7-0.1-2.6-1.7-2.1-3.4c0.4-1.3,1.2-2.1,2.4-2.6C33.8,8.2,34,8,34.1,7.8C35,5.5,37.1,4,39.5,4
		c2.4,0,4.5,1.4,5.4,3.7C45,8,45.1,8.1,45.4,8.2c0.7,0.1,1.4,0.5,1.9,1c0.2,0.2,0.5,0.3,0.8,0.3c0.6,0.1,1.2,0,1.8,0.1
		c1.2,0.2,2,1.3,1.9,2.5c-0.1,1.3-1.1,2.2-2.3,2.3C48.1,14.3,46.7,14.3,45.3,14.3C45.3,14.3,45.3,14.3,45.3,14.3z"/>
	<path class="st9" d="M18.6,28c-2,0-3.6-1.6-3.6-3.6c0-2,1.6-3.6,3.6-3.6c2,0,3.6,1.6,3.6,3.6C22.2,26.5,20.6,28.1,18.6,28z
		 M18.6,26.4c1.1,0,2-0.8,2-1.9c0-1.1-0.9-2-2-2c-1.1,0-2,0.9-2,2C16.7,25.5,17.5,26.4,18.6,26.4z"/>
</g>
</svg>
