<?xml version="1.0" encoding="utf-8"?>
<!-- Generator: Adobe Illustrator 22.0.1, SVG Export Plug-In . SVG Version: 6.00 Build 0)  -->
<svg version="1.1" id="Layer_1" xmlns="http://www.w3.org/2000/svg" xmlns:xlink="http://www.w3.org/1999/xlink" x="0px" y="0px"
	 viewBox="0 0 58 58" style="enable-background:new 0 0 58 58;" xml:space="preserve">
<style type="text/css">
	.st0{opacity:0.7;fill:#0C0C0C;}
	.st1{fill:#E8E7E6;}
	.st2{fill:#F9F9F9;}
	.st3{fill:#FFFFFF;}
	.st4{fill:#666666;}
	.st5{fill:#999999;}
	.st6{fill:#E5BA03;}
	.st7{fill:none;stroke:#FFFFFF;stroke-width:2;stroke-miterlimit:10;}
	.st8{fill:#8C8C8C;}
	.st9{fill:#333333;}
	.st10{fill:#221E1A;}
	.st11{clip-path:url(#SVGID_10_);}
	.st12{clip-path:url(#SVGID_12_);}
	.st13{clip-path:url(#SVGID_14_);}
	.st14{opacity:0.7;fill:url(#SVGID_15_);}
	.st15{opacity:0.1;fill:url(#SVGID_16_);}
	.st16{opacity:0.7;fill:url(#SVGID_17_);}
	.st17{opacity:0.7;fill:url(#SVGID_18_);}
	.st18{opacity:0.3;fill:#FFFFFF;}
	.st19{fill:none;stroke:#DDDDDD;stroke-miterlimit:10;}
	.st20{clip-path:url(#SVGID_20_);}
	.st21{clip-path:url(#SVGID_22_);}
	.st22{clip-path:url(#SVGID_24_);}
	.st23{clip-path:url(#SVGID_26_);}
	.st24{opacity:0.7;fill:url(#SVGID_27_);}
	.st25{opacity:0.7;fill:url(#SVGID_28_);}
	.st26{fill:#BA9704;}
	.st27{fill:#D6AE03;}
	.st28{opacity:0.7;fill:url(#SVGID_29_);}
	.st29{opacity:0.7;fill:url(#SVGID_30_);}
	.st30{fill:#D1D1D1;}
	.st31{fill:#0C0C0C;}
	.st32{fill:#4293CB;}
	.st33{clip-path:url(#SVGID_32_);}
	.st34{fill:#69B741;}
	.st35{fill:none;stroke:#FFFFFF;stroke-miterlimit:10;}
	.st36{fill:#F2F2F2;}
	.st37{clip-path:url(#SVGID_44_);}
	.st38{fill:none;stroke:#0C0C0C;stroke-miterlimit:10;}
	.st39{opacity:0.5;}
	.st40{fill:#E9E9E9;}
	.st41{clip-path:url(#SVGID_46_);}
	.st42{clip-path:url(#SVGID_48_);}
	.st43{fill:none;stroke:#999999;stroke-miterlimit:10;}
	.st44{clip-path:url(#SVGID_50_);}
	.st45{clip-path:url(#SVGID_52_);}
	.st46{clip-path:url(#SVGID_54_);}
	.st47{fill:#606060;}
	.st48{clip-path:url(#SVGID_58_);}
	.st49{clip-path:url(#SVGID_60_);}
	.st50{opacity:0.7;fill:url(#SVGID_61_);}
	.st51{opacity:0.7;fill:url(#SVGID_62_);}
	.st52{clip-path:url(#SVGID_74_);}
	.st53{fill:url(#SVGID_75_);}
	.st54{clip-path:url(#SVGID_77_);}
	.st55{clip-path:url(#SVGID_79_);}
	.st56{clip-path:url(#SVGID_81_);}
	.st57{clip-path:url(#SVGID_83_);}
	.st58{clip-path:url(#SVGID_85_);}
	.st59{fill:url(#SVGID_86_);}
</style>
<g>
	<path class="st9" d="M56.5,51.7c-0.3,0.4-0.6,0.5-1.1,0.5c-17.6,0-35.2,0-52.7,0c-0.5,0-0.9,0-1.1-0.6c-0.2-0.5,0.1-0.8,0.6-1.1
		c-0.5-1-0.7-2-0.5-3.1C2,45.6,3.1,44.3,5,43.7c1.9-0.6,3.5,0,4.8,1.3c0.3,0.3,0.5,0.4,0.9,0.3c0.3-0.1,0.6,0,0.9,0c0-1.5,0-3,0-4.5
		c-6.3-0.5-11.1-6.7-9.5-13.4c1.5-5.9,7.5-9.4,13.4-7.7c5.6,1.6,9.7,8,6.9,14.7c0.2,0,0.4,0,0.6,0c1.9,0,3.8,0,5.7,0
		c0.2,0,0.4,0,0.6,0.1c0.4,0.1,0.6,0.5,0.4,0.8c-0.1,0.3-0.4,0.5-0.6,0.7c-0.1,0.1-0.3,0-0.5,0c-3.5,0-7,0-10.5,0
		c-0.3,0-0.7,0.1-0.7,0.3c-0.1,0.4,0,0.9,0.1,1.3c0,0.1,0.3,0.1,0.5,0.1c1.5,0,3,0,4.6,0c5.8,0,11.5,0,17.3,0c0.3,0,0.7-0.1,0.7-0.2
		c0.1-0.4,0-0.9-0.1-1.3c0-0.1-0.4-0.2-0.6-0.2c-2.4,0-4.9,0-7.3,0c-0.2,0-0.3,0-0.5,0c-0.4-0.1-0.6-0.3-0.7-0.7
		c-0.1-0.4,0.1-0.7,0.5-0.9c0.2-0.1,0.3-0.1,0.5-0.1c2.5,0,5.1-0.1,7.6,0c0.7,0,1-0.2,1.3-0.7c0.3-0.6,0.8-1.2,1.3-1.6
		c1.1-1,2.4-0.9,3.5,0c0.4,0.4,0.8,0.9,1.2,1.3c0.3-0.4,0.6-0.8,1-1.2c1.2-1.2,2.6-1.2,3.9,0c1,1,1.7,2.2,2.2,3.5
		c1.3,3.4,2,7,1.9,10.7c0,1.5-0.3,2.4-1,3.8c0.4,0.2,0.8,0.5,1.2,0.7C56.5,51.3,56.5,51.5,56.5,51.7z M16,38.6
		c-0.1-0.4-0.2-0.7-0.3-1c0-0.3,0-0.7,0-1c0-1.3,0.9-2.1,2.1-2.1c0.8,0,1.5,0,2.3,0c0.3,0,0.5-0.1,0.6-0.4c1.5-3.3,1.2-6.5-0.9-9.4
		c-2.2-2.9-5.2-4.1-8.8-3.5C7,21.7,4,24.9,3.5,28.8c-0.6,3.9,1.5,7.7,5,9.5c1,0.5,2,0.8,3.1,0.9c0-1.2,0-2.3,0-3.4
		c0-0.2-0.2-0.3-0.3-0.5c-0.7-0.8-1.5-1.5-2.2-2.2c-0.5-0.5-0.5-1-0.1-1.3c0.4-0.3,0.8-0.3,1.3,0.2c0.4,0.4,0.8,0.9,1.3,1.4
		c0,0,0.1-0.1,0.1-0.1c0-1.5,0-3,0-4.4c0-0.7,0.3-1,0.8-1c0.5,0,0.8,0.4,0.8,1c0,0.6,0,1.2,0,1.7c0,0,0.1,0,0.1,0
		c0.5-0.5,1-1,1.5-1.5c0.4-0.4,0.8-0.3,1.2,0c0.3,0.3,0.3,0.8,0,1.2c-0.1,0.1-0.2,0.2-0.3,0.3c-0.7,0.7-1.4,1.4-2.1,2.1
		c-0.2,0.2-0.3,0.5-0.3,0.7c0,1.5,0,3,0,4.5c0,0.5,0,1,0,1.6C14.2,39,15.1,38.8,16,38.6z M40.2,43.9c0.6,0,1.2,0,1.7,0
		c1.2,0,1.9,0.7,1.9,1.9c0,0.3,0,0.6,0,1c0,1.2-0.7,1.9-1.9,1.9c-0.5,0-0.9,0-1.4,0c0.3,0.9,0.9,1.4,1.7,1.5
		c1.2,0.1,2.4,0.1,3.6,0.1c1.7,0,2.5-0.8,2.8-2.5c0.3-1.6,0.2-3.1,0-4.7c-0.3-2.7-0.9-5.3-2.1-7.7c-0.3-0.7-0.8-1.4-1.4-2
		c-0.5-0.6-1.1-0.6-1.6,0c-0.6,0.7-1,1.4-1.4,2.2c-0.1,0.1,0,0.3,0,0.4c0.1,0.8,0.2,1.6-0.2,2.4c-0.1,0.1,0,0.3,0.1,0.4
		c0.3,0.9,0.4,1.9,0,2.8c-0.3,0.7-1,1-1.7,1.1C40.3,43.2,40.2,43.5,40.2,43.9z M49.4,50.4c1.1-0.1,2.1-0.1,3.1-0.2
		c1.1-0.1,1.7-0.8,2-1.8c0.1-0.3,0.2-0.6,0.2-0.9c0.2-1.8,0.1-3.6-0.2-5.4c-0.4-2.3-0.9-4.6-2-6.7c-0.3-0.7-0.8-1.3-1.3-1.9
		c-0.5-0.6-1-0.6-1.6,0c-0.5,0.5-0.8,1.1-1.2,1.7c-0.1,0.1,0,0.3,0,0.4c0.9,2.3,1.5,4.6,1.8,7.1C50.5,45.3,50.8,47.9,49.4,50.4z
		 M10,50.6c1.8,0,3.7,0,5.5,0c0.2,0,0.4,0,0.4-0.1c0.1-0.4,0.2-0.8,0.2-1.2c0-0.3-0.2-0.6-0.6-0.6c-0.3-0.1-0.6-0.3-0.9-0.5
		c-0.3-0.3-0.5-0.3-0.8-0.2c-0.5,0.2-0.9,0-1.2-0.3c-0.6-0.6-1.3-0.8-2.1-0.6c-1,0.2-1,0.3-1.6-0.6c-1-1.4-3-1.8-4.4-0.8
		c-1.4,1-1.8,3.1-0.7,4.5c0.2,0.3,0.4,0.4,0.8,0.4C6.4,50.6,8.2,50.6,10,50.6z M29,45.6c-4.2,0-8.4,0-12.6,0c-0.2,0-0.5,0-0.5,0.1
		c0,0.4-0.1,0.9,0,1.3c0,0.1,0.4,0.1,0.7,0.1c8.3,0,16.5,0,24.8,0c1.1,0,0.9,0.1,0.9-1c0-0.5-0.1-0.6-0.6-0.6
		C37.4,45.6,33.2,45.6,29,45.6z M29,41.1c3.6,0,7.3,0,10.9,0c0.6,0,0.7-0.1,0.7-0.7c0-0.1,0-0.3,0-0.4c0-0.5-0.2-0.6-0.6-0.6
		c-7.4,0-14.7,0-22.1,0c-0.2,0-0.5,0.1-0.5,0.1c-0.1,0.4-0.1,0.9-0.1,1.3c0,0.1,0.5,0.3,0.7,0.3C21.7,41.1,25.4,41.1,29,41.1z
		 M36.5,48.8c-4.9,0-9.8,0-14.6,0c0,0.6,0,1.2,0,1.8c4.9,0,9.8,0,14.6,0C36.5,50,36.5,49.4,36.5,48.8z M21.5,42.8
		c-1.3,0-2.5,0-3.7,0c-1.1,0-1.9-0.7-2-1.8c0-0.2,0-0.4-0.1-0.5c-0.8,0.2-1.6,0.3-2.4,0.5c0,0.1,0,0.3,0,0.4c0,1.4,0,2.9,0,4.3
		c0,0.6,0.3,0.8,0.9,0.6c0-0.1,0-0.1,0-0.2c0.1-1.4,0.7-2,2.1-2.1c1.4,0,2.8,0,4.2,0c0.3,0,0.6,0,1,0C21.5,43.5,21.5,43.2,21.5,42.8
		z M35.2,42.8c-4.1,0-8.1,0-12.1,0c0,0.4,0,0.7,0,1.1c4,0,8.1,0,12.1,0C35.2,43.5,35.2,43.2,35.2,42.8z M20.2,48.8
		c-0.8,0-1.6,0-2.4,0c0,0.6,0,1.2,0,1.8c0.8,0,1.6,0,2.4,0C20.2,50,20.2,49.4,20.2,48.8z M36.9,42.8c0,0.4,0,0.8,0,1.1
		c0.6,0,1.1,0,1.6,0c0-0.4,0.1-0.7,0.1-1.1C38,42.8,37.5,42.8,36.9,42.8z M39.6,50.6c-0.2-0.5-0.5-0.9-0.7-1.4
		c-0.1-0.5-0.4-0.5-0.8-0.4c0,0.6,0,1.2,0,1.8C38.7,50.6,39.1,50.6,39.6,50.6z"/>
	<path class="st9" d="M35.3,24.4c-1.2,0-2.4,0-3.7,0c-2.1,0-3.3-1.7-2.6-3.6c0.4-1.2,1.2-2,2.3-2.4c0.3-0.1,0.5-0.2,0.6-0.6
		c0.8-2.3,2.9-3.7,5.3-3.7c2.4,0,4.5,1.4,5.4,3.7c0.1,0.3,0.3,0.5,0.6,0.5c0.8,0.1,1.4,0.5,1.9,1.1c0.1,0.1,0.4,0.2,0.6,0.3
		c0.5,0,1,0,1.5,0c1.3,0.1,2.3,1.1,2.3,2.4c0,1.3-1,2.3-2.4,2.4c-1.5,0-2.9,0-4.4,0c-0.6,0-0.9-0.3-0.9-0.8c0-0.5,0.4-0.8,1-0.8
		c1.4,0,2.7,0,4.1,0c0.2,0,0.5,0,0.6-0.1c0.2-0.2,0.4-0.5,0.4-0.8c0-0.4-0.3-0.6-0.7-0.6c-0.6,0-1.3,0-1.9,0c-0.5,0-0.9-0.1-1.2-0.6
		c-0.4-0.6-1.1-0.9-1.8-0.8c-0.6,0-0.9-0.2-1-0.8c-0.5-2.1-2.1-3.3-4-3.3c-2,0-3.5,1.3-4,3.3c-0.1,0.5-0.4,0.8-0.9,0.8
		c-1,0.1-1.6,0.7-1.9,1.6c-0.2,0.8,0.2,1.4,1.1,1.4c2.5,0,4.9,0,7.4,0c0.2,0,0.3,0,0.5,0c0.5,0,0.8,0.4,0.8,0.8
		c0,0.5-0.3,0.8-0.8,0.8C38.1,24.4,36.7,24.4,35.3,24.4C35.3,24.4,35.3,24.4,35.3,24.4z"/>
	<path class="st9" d="M20.7,14.3c-1.1,0-2.2,0-3.3,0c-0.7,0-1-0.3-1-0.8c0-0.5,0.3-0.8,1-0.8c2.1,0,4.2,0,6.2,0c0.1,0,0.3,0,0.4,0
		c0.2-0.1,0.4-0.3,0.5-0.4c-0.2-0.2-0.3-0.5-0.5-0.5c-0.7-0.1-1.4,0-2.1,0c-0.9,0-1-0.1-1.3-0.9c-0.3-1-1.3-1.4-2.3-1
		c-0.8,0.3-0.9,0.3-1.4-0.4c-0.6-0.8-1.6-1.2-2.6-0.8c-0.6,0.2-1,0.1-1.4-0.4C12,7.4,10.8,7.2,9.7,7.6c-1.1,0.5-1.7,1.5-1.7,2.7
		c0,1.3,1,2.3,2.3,2.4c1.1,0,2.2,0,3.3,0c0.2,0,0.4,0,0.6,0c0.4,0.1,0.6,0.4,0.6,0.8c0,0.4-0.3,0.7-0.7,0.7c-1.5,0-3,0.1-4.4-0.1
		c-1.7-0.2-2.8-1.3-3.2-3C6,9.4,6.6,7.9,8.1,6.7c1.6-1.3,3.8-1.2,5.5,0c0.2,0.1,0.5,0.2,0.7,0.2c1.3-0.2,2.4,0.1,3.4,1
		c0.2,0.2,0.4,0.3,0.8,0.2c1.4-0.3,2.8,0.4,3.5,1.6c0.2,0.3,0.3,0.4,0.7,0.4c0.6,0,1.1,0,1.7,0c1.2,0.1,2,1,2,2.1c0,1.1-0.9,2-2,2
		C23,14.3,21.9,14.3,20.7,14.3C20.7,14.3,20.7,14.3,20.7,14.3z"/>
</g>
</svg>
