<?xml version="1.0" encoding="utf-8"?>
<!-- Generator: Adobe Illustrator 22.0.1, SVG Export Plug-In . SVG Version: 6.00 Build 0)  -->
<svg version="1.1" id="Layer_1" xmlns="http://www.w3.org/2000/svg" xmlns:xlink="http://www.w3.org/1999/xlink" x="0px" y="0px"
	 viewBox="0 0 58 58" style="enable-background:new 0 0 58 58;" xml:space="preserve">
<style type="text/css">
	.st0{opacity:0.7;fill:#0C0C0C;}
	.st1{fill:#E8E7E6;}
	.st2{fill:#F9F9F9;}
	.st3{fill:#FFFFFF;}
	.st4{fill:#333333;}
	.st5{fill:#666666;}
	.st6{fill:#999999;}
	.st7{fill:#E5BA03;}
	.st8{fill:none;stroke:#FFFFFF;stroke-width:2;stroke-miterlimit:10;}
	.st9{fill:#8C8C8C;}
	.st10{fill:#221E1A;}
	.st11{fill:#0C0C0C;}
	.st12{clip-path:url(#SVGID_10_);}
	.st13{clip-path:url(#SVGID_12_);}
	.st14{clip-path:url(#SVGID_14_);}
	.st15{opacity:0.7;fill:url(#SVGID_15_);}
	.st16{opacity:0.1;fill:url(#SVGID_16_);}
	.st17{opacity:0.7;fill:url(#SVGID_17_);}
	.st18{opacity:0.7;fill:url(#SVGID_18_);}
	.st19{opacity:0.3;fill:#FFFFFF;}
	.st20{fill:none;stroke:#DDDDDD;stroke-miterlimit:10;}
	.st21{clip-path:url(#SVGID_20_);}
	.st22{clip-path:url(#SVGID_22_);}
	.st23{clip-path:url(#SVGID_24_);}
	.st24{clip-path:url(#SVGID_26_);}
	.st25{opacity:0.7;fill:url(#SVGID_27_);}
	.st26{opacity:0.7;fill:url(#SVGID_28_);}
	.st27{fill:#BA9704;}
	.st28{fill:#D6AE03;}
	.st29{opacity:0.7;fill:url(#SVGID_29_);}
	.st30{opacity:0.7;fill:url(#SVGID_30_);}
	.st31{fill:#D1D1D1;}
	.st32{fill:#4293CB;}
	.st33{clip-path:url(#SVGID_32_);}
	.st34{fill:#69B741;}
	.st35{fill:none;stroke:#FFFFFF;stroke-miterlimit:10;}
	.st36{fill:#F2F2F2;}
	.st37{clip-path:url(#SVGID_44_);}
	.st38{fill:none;stroke:#0C0C0C;stroke-miterlimit:10;}
	.st39{opacity:0.5;}
	.st40{fill:#E9E9E9;}
	.st41{clip-path:url(#SVGID_46_);}
	.st42{clip-path:url(#SVGID_48_);}
	.st43{fill:none;stroke:#999999;stroke-miterlimit:10;}
	.st44{clip-path:url(#SVGID_50_);}
	.st45{clip-path:url(#SVGID_52_);}
	.st46{clip-path:url(#SVGID_54_);}
	.st47{fill:#606060;}
	.st48{clip-path:url(#SVGID_58_);}
	.st49{clip-path:url(#SVGID_60_);}
	.st50{opacity:0.7;fill:url(#SVGID_61_);}
	.st51{opacity:0.7;fill:url(#SVGID_62_);}
	.st52{clip-path:url(#SVGID_74_);}
	.st53{fill:url(#SVGID_75_);}
	.st54{clip-path:url(#SVGID_77_);}
	.st55{clip-path:url(#SVGID_79_);}
	.st56{clip-path:url(#SVGID_81_);}
	.st57{clip-path:url(#SVGID_83_);}
	.st58{clip-path:url(#SVGID_85_);}
	.st59{fill:url(#SVGID_86_);}
</style>
<g>
	<path class="st4" d="M1.5,2.2c0.4-0.5,0.8-0.6,1.4-0.3C8,3.8,13.3,5,18.7,5.8c6,0.8,12.1,0.9,18.1,0.3c6.3-0.6,12.3-2,18.3-4.1
		c0.2-0.1,0.4-0.2,0.6-0.2c0.4,0,0.7,0.2,0.8,0.6c0.1,0.4,0,0.8-0.4,0.9c-0.6,0.2-1.2,0.5-1.9,0.7c-0.3,0.1-0.5,0.3-0.6,0.6
		c-0.6,2.3-1.3,4.5-1.9,6.8c-0.2,0.8-0.8,0.9-1.4,0.4c-0.1-0.1-0.2-0.1-0.2-0.2c-1.3-1.3-2.7-2.6-4-3.8c-0.2-0.2-0.3-0.4-0.5-0.7
		c-0.6,1.6-1.2,3.1-1.8,4.6c-0.2,0.5-0.5,1.1-0.7,1.6c-0.4,0.8-1,0.9-1.6,0.3c-1.3-1.6-2.6-3.1-3.9-4.7c-0.1-0.1-0.2-0.2-0.3-0.3
		c-0.1,0.2-0.2,0.4-0.3,0.6c-0.9,1.7-1.8,3.5-2.7,5.2c-0.4,0.8-1.1,0.8-1.6,0.1c-1.2-1.8-2.4-3.5-3.7-5.4c-0.1,0.1-0.2,0.3-0.3,0.4
		c-1.1,1.6-2.1,3.2-3.2,4.8c-0.7,1-1.2,0.9-1.8-0.1c-1-1.8-2-3.7-3-5.5c-0.1,0.1-0.2,0.2-0.3,0.3c-1.2,1.5-2.5,3-3.7,4.5
		c-0.8,0.9-1.3,0.8-1.8-0.3c-0.1-0.3-0.3-0.7-0.4-1c-0.2-0.5-0.1-0.9,0.4-1.1c0.4-0.2,0.8-0.1,1.1,0.4c0,0.1,0.1,0.1,0.2,0.2
		c1.1-1.4,2.2-2.7,3.4-4.1c-1.8-0.3-3.6-0.6-5.3-0.9c0.2,0.4,0.3,0.9,0.5,1.3c0.2,0.6,0.1,1-0.4,1.2c-0.5,0.2-0.9,0-1.1-0.6
		c-0.2-0.4-0.3-0.9-0.5-1.4c-0.1,0.1-0.3,0.2-0.4,0.3c-1.4,1.4-2.8,2.7-4.2,4.1c-0.8,0.7-1.4,0.6-1.7-0.4C5.6,9,5,6.8,4.4,4.6
		C4.3,4.2,4.2,4,3.8,3.9c-0.5-0.1-1-0.3-1.4-0.5C2.1,3.3,1.8,3.1,1.5,2.9C1.5,2.7,1.5,2.5,1.5,2.2z M7.5,9.9
		c1.3-1.4,2.5-2.6,3.7-3.9C9.5,5.6,7.8,5.2,6,4.7C6.5,6.4,7,8.1,7.5,9.9z M52,4.7c-1.8,0.5-3.5,0.9-5.1,1.4c1.2,1.3,2.4,2.5,3.7,3.9
		C51,8.1,51.5,6.4,52,4.7z M38.6,7.5c1.2,1.4,2.3,2.7,3.4,4.2c0.7-1.7,1.3-3.3,2-5C42.1,7,40.4,7.2,38.6,7.5z M22.2,7.8
		c0.8,1.6,1.6,3.1,2.5,4.8c1-1.6,2-3,2.9-4.5C25.8,8,24.1,7.9,22.2,7.8z M35.8,7.8C34,7.9,32.2,8,30.4,8.1c1,1.5,1.9,2.9,3,4.5
		C34.2,10.9,35,9.4,35.8,7.8z"/>
	<path class="st4" d="M25.6,40.3c0,1.5,0,2.9,0,4.4c1,0.1,1.7,0.6,2.4,1.2c0.6,0.5,1.4,0.4,2.1,0c0.3-0.2,0.6-0.5,1-0.7
		c1.2-0.6,2.4-0.6,3.6,0.1c0.2,0.1,0.4,0.3,0.6,0.4c0.9,0.7,1.7,0.7,2.6,0c1-0.8,2-1.2,3.3-0.9c0.6,0.2,1.1,0.5,1.6,0.9
		c1,0.7,1.7,0.7,2.7,0c1.7-1.3,3.2-1.3,4.9,0c1,0.7,1.7,0.7,2.7,0c0.7-0.5,1.4-0.9,2.2-1c0.6,0,0.9,0.2,1,0.7c0,0.5-0.3,0.7-0.9,0.9
		c-0.5,0.1-1,0.4-1.5,0.7c-0.9,0.7-1.9,1-3,0.7c-0.6-0.2-1.1-0.5-1.6-0.8c-1.1-0.7-1.7-0.8-2.8,0c-1.6,1.2-3.1,1.2-4.8,0
		c-1.1-0.8-1.7-0.8-2.9,0c-1.6,1.2-3.1,1.2-4.7,0c-1.1-0.8-1.8-0.8-2.8,0c-1.6,1.2-3.1,1.2-4.7,0c-0.3-0.2-0.7-0.4-1.1-0.7
		c0,1.7,0,3.3,0,4.9c1,0.1,1.7,0.7,2.4,1.2c0.7,0.5,1.5,0.4,2.2-0.1c0.5-0.3,1-0.7,1.6-0.9c1.1-0.3,2.1-0.1,3,0.6
		c0.1,0.1,0.1,0.1,0.2,0.2c1.2,0.9,1.8,0.9,2.9,0c0.9-0.7,2-1.1,3.2-0.7c0.5,0.2,1,0.5,1.5,0.8c1.1,0.8,1.8,0.8,2.9,0
		c1.6-1.2,3.1-1.2,4.7,0c1.1,0.8,1.8,0.8,2.9,0c0.7-0.5,1.4-0.8,2.2-0.9c0.5,0,0.9,0.3,0.9,0.8c0,0.5-0.3,0.7-0.8,0.8
		c-0.4,0.1-0.9,0.2-1.3,0.5c-1.6,1.3-3.5,1.3-5,0c-0.9-0.7-1.7-0.7-2.6,0c-1.6,1.3-3.5,1.2-4.9,0c-0.9-0.8-1.7-0.7-2.7,0
		c-1.7,1.3-3.2,1.3-4.9,0c-1-0.7-1.7-0.7-2.7,0c-1.7,1.3-3.2,1.3-4.9,0c-0.3-0.2-0.6-0.4-1-0.6c0,1,0,1.8,0,2.7
		c0,0.6-0.3,0.9-0.8,0.9c-0.4,0-0.7-0.3-0.8-0.7c0-0.3,0-0.6,0-0.9c-4.3,0-8.6,0-13,0c0,0.3,0,0.6,0,0.9c0,0.5-0.3,0.7-0.8,0.7
		c-0.4,0-0.8-0.3-0.8-0.8c0-0.7,0-1.4,0-2c0-0.2,0-0.3,0-0.6c-0.4,0.3-0.6,0.5-0.9,0.7c-1.4,1-3,1-4.3,0c-0.5-0.4-1-0.7-1.7-0.8
		c-0.5,0-0.7-0.4-0.7-0.8c0-0.5,0.3-0.7,0.8-0.7c0.7,0,1.4,0.2,2,0.6C4.8,52,5,52.2,5.3,52.3c0.7,0.4,1.3,0.4,2,0
		C8,52,8.6,51.6,9.2,51.2c0.1,0,0.1-0.2,0.1-0.2c0-1.5,0-3,0-4.6c-0.3,0.2-0.5,0.3-0.7,0.5c-1.6,1.2-3.1,1.2-4.7,0
		c-0.5-0.3-0.9-0.6-1.5-0.6c-0.5,0-0.7-0.3-0.7-0.8c0-0.5,0.3-0.8,0.8-0.8c0.8,0,1.4,0.2,2.1,0.7c0.3,0.2,0.6,0.5,0.9,0.6
		c0.7,0.3,1.3,0.2,1.9-0.2c0.6-0.4,1.2-0.7,1.7-1c0.1-0.1,0.2-0.2,0.2-0.3c0-1.4,0-2.8,0-4.3c-1,0-1.9,0-2.8,0c-1.3,0-2.6,0-3.9,0
		c-0.6,0-1-0.3-1-0.8c0-0.5,0.3-0.8,1-0.8c0.4,0,0.7,0,1.1,0c0-0.2,0-0.4,0-0.6c0-2.2,0-4.5,0-6.7c0-1.8,1.4-3.3,3.1-3.5
		c1.9-0.2,3.5,0.9,3.9,2.7c0.1,0.4,0.1,0.8,0.1,1.2c0,2.1,0,4.2,0,6.3c0,0.2,0,0.4,0,0.6c2.5,0,4.9,0,7.4,0c0-0.2,0-0.4,0-0.6
		c0-2.2,0-4.4,0-6.6c0-2.7,2.7-4.5,5.1-3.3c1.4,0.7,2,1.8,2,3.3c0,2.2,0,4.3,0,6.5c0,0.2,0,0.4,0,0.7c0.7,0,1.4,0,2,0
		c0.8,0,1.8,0.2,2.4-0.1c0.6-0.3,0.9-1.3,1.4-1.9c1.2-1.3,1.7-2.9,1.4-4.6c-0.1-0.5-0.1-1-0.3-1.4c-1.5-4-3.1-8.1-4.7-12.1
		c-0.4-1.1-0.1-1.5,1-1.5c4,0,8.1,0,12.1,0c0.8,0,0.9,0.1,1.2,0.8c0.9,2.4,1.9,4.8,2.8,7.1c0.1,0.2,0.1,0.4,0.2,0.6
		c0.6,0,1.2,0,1.7,0c1.7,0.1,2.9,0.8,3.6,2.4c0.3,0.6,0.5,1.2,0.7,1.8c0.2,0.5,0.5,0.7,1,0.6c1,0,2,0,3.1,0c0.6,0,0.8,0.3,0.9,0.7
		c0,0.5-0.3,0.8-0.7,0.8c-0.2,0-0.4,0-0.6,0c-6.6,0-13.2,0-19.8,0c-0.2,0-0.4,0-0.7,0c0,0.7,0,1.3,0,2.1c0.2,0,0.5,0,0.7,0
		c6.6,0,13.2,0,19.8,0c0.9,0,1.2,0.2,1.2,0.8c0,0.6-0.3,0.8-1.2,0.8c-6.8,0-13.6,0-20.4,0c-0.4,0-0.6,0.1-0.8,0.4
		c-0.6,0.9-1.1,1.7-1.8,2.7c0.3,0,0.5,0,0.7,0c3.5,0,7,0,10.5,0c0.6,0,0.9,0.3,0.9,0.8c0,0.5-0.2,0.7-0.7,0.8c-0.2,0-0.4,0-0.5,0
		c-5.5,0-11.1,0-16.6,0C26,40.3,25.8,40.3,25.6,40.3z M43.5,25.6c-0.1-0.2-0.1-0.4-0.2-0.5c-0.8-2-1.5-3.9-2.3-5.9
		c-0.2-0.4-0.4-0.5-0.8-0.5c-3.3,0-6.7,0-10,0c-0.2,0-0.3,0-0.5,0c0,0.1,0,0.2,0,0.3c0.8,2.1,1.6,4.3,2.5,6.4c0,0.1,0.3,0.3,0.4,0.3
		C36.2,25.6,39.8,25.6,43.5,25.6z M23.9,38.6c0-2.5,0-5,0-7.5c0-1.1-1-1.8-2-1.8c-1.1,0-1.9,0.9-1.9,2.1c0,2.3,0,4.5,0,6.8
		c0,0.1,0,0.3,0,0.4C21.3,38.6,22.6,38.6,23.9,38.6z M9.4,38.6c0-0.1,0-0.2,0-0.2c0-2.3,0-4.6,0-7c0-0.2,0-0.5-0.1-0.7
		C9,29.8,8,29.3,7,29.4c-0.9,0.2-1.6,1-1.6,1.9c0,2.2,0,4.3,0,6.5c0,0.3,0,0.5,0,0.8C6.8,38.6,8.1,38.6,9.4,38.6z M23.9,40.3
		c-4.3,0-8.6,0-12.9,0c0,0.9,0,1.8,0,2.6c4.3,0,8.6,0,12.9,0C23.9,42,23.9,41.2,23.9,40.3z M33,27.2c0.4,0.9,0.7,1.8,1,2.7
		c0.1,0.4,0.3,0.5,0.7,0.5c3.4,0,6.7,0,10.1,0c0.2,0,0.3,0,0.6,0c-0.3-0.9-0.7-1.7-1-2.6c-0.1-0.4-0.3-0.5-0.8-0.5
		c-3.3,0-6.7,0-10,0C33.4,27.2,33.2,27.2,33,27.2z M11,49.7c4.3,0,8.6,0,12.9,0c0-0.6,0-1.2,0-1.8c-4.3,0-8.6,0-12.9,0
		C11,48.5,11,49.1,11,49.7z M23.9,44.6c-4.3,0-8.6,0-12.9,0c0,0.6,0,1.1,0,1.6c4.3,0,8.6,0,12.9,0C23.9,45.6,23.9,45.1,23.9,44.6z
		 M11,52.9c4.3,0,8.6,0,12.9,0c0-0.6,0-1.1,0-1.6c-4.3,0-8.6,0-12.9,0C11,51.9,11,52.4,11,52.9z M45.9,27.2c0.4,1,0.7,1.9,1.1,2.9
		c0,0.1,0.2,0.2,0.3,0.2c0.8,0,1.7,0,2.5,0C49,27.9,48.5,26.9,45.9,27.2z"/>
	<path class="st4" d="M51.8,38.7c1.2,0,2.3,0,3.5,0c0.6,0,0.9,0.3,0.9,0.8c0,0.5-0.3,0.8-0.9,0.8c-2.3,0-4.6,0-6.9,0
		c-0.6,0-0.9-0.3-0.9-0.8c0-0.5,0.3-0.8,0.9-0.8C49.5,38.7,50.7,38.7,51.8,38.7z"/>
</g>
</svg>
